<svg width="16" height="16" viewBox="0 0 16 16" fill="none" xmlns="http://www.w3.org/2000/svg">
<circle cx="8" cy="8" r="7.95" fill="url(#paint0_linear_312_324)" stroke="#467DC2" stroke-width="0.1"/>
<path d="M1.19102 4.86987L0.983496 4.89478C0.930925 4.89478 0.890804 4.87679 0.863135 4.84082C0.835466 4.80485 0.821631 4.76888 0.821631 4.73291C0.821631 4.69694 0.827165 4.66512 0.838233 4.63745C0.852067 4.60701 0.874203 4.57935 0.904639 4.55444C0.979346 4.49357 1.07757 4.46313 1.19932 4.46313C1.32383 4.46313 1.42482 4.4659 1.5023 4.47144C1.57977 4.47697 1.65448 4.48389 1.72642 4.49219C1.8952 4.51156 2.06675 4.52124 2.24106 4.52124C2.41815 4.52124 2.57586 4.51432 2.71421 4.50049C2.85532 4.48665 2.99367 4.47282 3.12925 4.45898C3.51108 4.41471 3.80715 4.39258 4.01743 4.39258C5.29852 4.39258 6.26971 4.70247 6.93101 5.32227C7.54803 5.90055 7.85654 6.70711 7.85654 7.74194C7.85654 8.3811 7.68638 8.96077 7.34605 9.48096C7.02231 9.979 6.57407 10.3733 6.00132 10.6638C5.4258 10.9543 4.78802 11.0996 4.08799 11.0996C3.75872 11.0996 3.47235 11.0885 3.22886 11.0664L2.66855 11.0166C2.53851 11.0055 2.41123 11 2.28672 11C2.16221 11 2.06121 11.0028 1.98374 11.0083C1.90903 11.0166 1.83294 11.0249 1.75547 11.0332C1.54795 11.0553 1.38608 11.0664 1.26987 11.0664C1.15643 11.0664 1.0748 11.0567 1.025 11.0374C0.975195 11.0208 0.935075 11 0.904639 10.9751C0.8493 10.9308 0.821631 10.8824 0.821631 10.8298C0.821631 10.6998 0.875586 10.6348 0.983496 10.6348L1.25327 10.6597C1.44142 10.6597 1.56732 10.585 1.63096 10.4355C1.68906 10.3 1.71812 10.0537 1.71812 9.69678V5.88672C1.71812 5.52425 1.69183 5.28491 1.63926 5.1687C1.58945 5.05249 1.52996 4.97363 1.46079 4.93213C1.39162 4.89062 1.30169 4.86987 1.19102 4.86987ZM2.71006 9.88354C2.71006 10.1187 2.79998 10.2778 2.97983 10.3608C3.15968 10.4411 3.49033 10.4812 3.97178 10.4812C4.45599 10.4812 4.86688 10.4383 5.20444 10.3525C5.54201 10.2668 5.82839 10.1215 6.06357 9.91675C6.54502 9.49894 6.78574 8.80444 6.78574 7.83325C6.78574 6.88696 6.5298 6.17171 6.01792 5.6875C5.53094 5.22819 4.83229 4.99854 3.92197 4.99854C3.5097 4.99854 3.23162 5.02344 3.08774 5.07324C2.94386 5.12305 2.84425 5.17977 2.78892 5.24341C2.73634 5.30428 2.71006 5.38175 2.71006 5.47583V9.88354ZM8.52139 6.13989C8.45498 6.13989 8.42178 6.09147 8.42178 5.99463C8.42178 5.89779 8.42731 5.80924 8.43838 5.729C8.45221 5.64876 8.46882 5.57267 8.48818 5.50073C8.50755 5.42879 8.52969 5.35824 8.55459 5.28906L8.63345 5.07324C8.69985 4.88509 8.74551 4.71631 8.77041 4.56689C8.79531 4.41748 8.8216 4.32894 8.84927 4.30127C8.87694 4.27083 8.90737 4.25562 8.94058 4.25562C8.99592 4.25562 9.06786 4.31372 9.1564 4.42993C9.20067 4.4825 9.26569 4.51156 9.35147 4.51709C9.44001 4.51986 9.5244 4.52124 9.60464 4.52124H13.8048C13.9792 4.52124 14.1106 4.4908 14.1991 4.42993C14.2877 4.36906 14.3485 4.32479 14.3817 4.29712C14.4149 4.26945 14.4426 4.25562 14.4647 4.25562C14.4869 4.25562 14.5063 4.257 14.5229 4.25977C14.5422 4.26253 14.5602 4.26945 14.5768 4.28052C14.6238 4.30819 14.6266 4.37044 14.5851 4.46729C14.5464 4.56136 14.5021 4.68311 14.4523 4.83252C14.4025 4.97917 14.3568 5.12305 14.3153 5.26416C14.2406 5.52148 14.1881 5.7207 14.1576 5.86182C14.1189 6.0555 14.0649 6.15234 13.9958 6.15234C13.9238 6.15234 13.8795 6.10946 13.8629 6.02368C13.8491 5.93514 13.8325 5.85767 13.8131 5.79126C13.7938 5.72209 13.7689 5.65983 13.7384 5.60449C13.5503 5.27246 12.9665 5.10645 11.987 5.10645V9.60547C11.987 9.9707 12.0091 10.2142 12.0534 10.3359C12.1004 10.4577 12.1544 10.5421 12.2152 10.5891C12.2761 10.6334 12.3411 10.6555 12.4103 10.6555C12.4822 10.6555 12.5348 10.6541 12.568 10.6514C12.6483 10.6403 12.7064 10.632 12.7423 10.6265C12.7783 10.6209 12.817 10.6182 12.8585 10.6182C12.9028 10.6182 12.9388 10.6403 12.9665 10.6846C12.9941 10.7261 13.008 10.7634 13.008 10.7966C13.008 10.8271 12.9997 10.8575 12.9831 10.8879C12.9665 10.9184 12.9402 10.946 12.9042 10.9709C12.8157 11.0318 12.7077 11.0623 12.5805 11.0623C12.456 11.0623 12.3467 11.0581 12.2526 11.0498C12.1613 11.0443 12.0755 11.0387 11.9953 11.0332L11.7545 11.0083C11.6771 11.0028 11.5927 11 11.5014 11C11.4101 11 11.3257 11.0028 11.2482 11.0083L11.0075 11.0332C10.7667 11.0526 10.5897 11.0623 10.4762 11.0623C10.3655 11.0623 10.2825 11.0526 10.2272 11.0332C10.1746 11.0166 10.1304 10.9958 10.0944 10.9709C10.0252 10.9211 9.99063 10.8713 9.99063 10.8215C9.99063 10.7717 10.0045 10.7261 10.0321 10.6846C10.0598 10.6403 10.0958 10.6182 10.14 10.6182C10.1843 10.6182 10.2203 10.6209 10.2479 10.6265C10.2784 10.6292 10.3074 10.632 10.3351 10.6348C10.4236 10.6486 10.5053 10.6555 10.58 10.6555C10.6547 10.6555 10.7225 10.6334 10.7833 10.5891C10.8442 10.5448 10.8913 10.4784 10.9245 10.3899C10.9826 10.2349 11.0116 9.97347 11.0116 9.60547V5.10229C10.4638 5.10229 10.0695 5.14103 9.82876 5.21851C9.79279 5.22957 9.72362 5.24756 9.62124 5.27246C9.51886 5.29736 9.40265 5.35962 9.27261 5.45923C9.14256 5.55607 9.02773 5.65568 8.92813 5.75806C8.82852 5.85767 8.74412 5.94621 8.67495 6.02368C8.60855 6.10116 8.55736 6.13989 8.52139 6.13989Z" fill="#FFD9D9"/>
<defs>
<linearGradient id="paint0_linear_312_324" x1="2.5" y1="2" x2="12.5" y2="14.5" gradientUnits="userSpaceOnUse">
<stop stop-color="#66F4FD"/>
<stop offset="1" stop-color="#A22FE8"/>
</linearGradient>
</defs>
</svg>
